<svg id="Capa_1" enable-background="new 0 0 512 512" height="512" viewBox="0 0 512 512" width="512" xmlns="http://www.w3.org/2000/svg"><g><g><g><g><g><g><path d="m309.11 15.736-10.94 97.66c-13.37-3.95-27.52-6.07-42.17-6.07s-28.8 2.12-42.17 6.07l-10.94-97.66c17.1-3.77 34.87-5.75 53.11-5.75s36.01 1.98 53.11 5.75z" fill="#b2f0fb"/></g></g></g></g><g><g><g><g><path d="m309.11 496.236c-17.1 3.77-34.87 5.75-53.11 5.75s-36.01-1.98-53.11-5.75l10.94-97.66c13.37 3.95 27.52 6.07 42.17 6.07s28.8-2.12 42.17-6.07z" fill="#b2f0fb"/></g></g></g></g><g><g><g><g><g><path d="m502 255.986c0 18.24-1.98 36.01-5.75 53.11l-97.66-10.94c3.95-13.37 6.07-27.52 6.07-42.17s-2.12-28.8-6.07-42.17l97.66-10.94c3.77 17.1 5.75 34.87 5.75 53.11z" fill="#b2f0fb"/></g></g></g></g><g><g><g><g><path d="m107.34 255.986c0 14.65 2.12 28.8 6.07 42.17l-97.66 10.94c-3.77-17.1-5.75-34.87-5.75-53.11s1.98-36.01 5.75-53.11l97.66 10.94c-3.95 13.37-6.07 27.52-6.07 42.17z" fill="#b2f0fb"/></g></g></g></g></g></g><g fill="#020288"><path d="m512 255.986c0-18.654-2.014-37.246-5.983-55.259-4.312-19.592-10.874-38.345-19.399-55.976v-55c0-35.501-28.882-64.383-64.383-64.383h-54.341c-.208 0-.413.007-.617.02-17.642-8.535-36.408-15.103-56.013-19.418-36.027-7.941-74.501-7.94-110.522-.001-19.592 4.312-38.345 10.874-55.976 19.4-.006 0-.013 0-.019 0h-54.981c-35.501 0-64.383 28.882-64.383 64.383v54.999c-8.525 17.63-15.087 36.383-19.398 55.973-3.971 18.013-5.985 36.606-5.985 55.262s2.014 37.249 5.983 55.259c4.312 19.592 10.874 38.345 19.399 55.976v55c0 35.501 28.882 64.383 64.383 64.383h54.999c17.63 8.525 36.383 15.087 55.973 19.398 18.014 3.971 36.607 5.984 55.263 5.984s37.249-2.014 55.26-5.983c19.591-4.312 38.345-10.874 55.975-19.399h54.999c35.501 0 64.383-28.882 64.383-64.383v-54.999c8.525-17.63 15.087-36.383 19.398-55.973 3.971-18.014 5.985-36.608 5.985-55.263zm-89.766-210.617c24.473 0 44.383 19.91 44.383 44.383v20.719c-17.601-25.417-39.684-47.5-65.101-65.102zm-376.851 44.382c0-24.473 19.91-44.383 44.383-44.383h20.719c-25.417 17.601-47.5 39.685-65.101 65.101v-20.718zm44.383 376.852c-24.473 0-44.383-19.91-44.383-44.383v-20.719c17.601 25.417 39.684 47.5 65.101 65.102zm376.851-44.383c0 24.473-19.91 44.383-44.383 44.383h-20.719c25.417-17.601 47.5-39.685 65.101-65.101v20.718zm19.866-115.274c-19.673 89.384-90.14 159.851-179.525 179.524-33.207 7.32-68.706 7.321-101.919-.001-89.383-19.673-159.85-90.14-179.523-179.526-3.661-16.603-5.516-33.747-5.516-50.957s1.855-34.354 5.517-50.96c19.673-89.384 90.14-159.851 179.525-179.524 16.604-3.66 33.748-5.516 50.958-5.516s34.354 1.855 50.961 5.517c89.383 19.673 159.85 90.14 179.522 179.523.001.001.001.002.001.003 3.66 16.603 5.516 33.747 5.516 50.957s-1.855 34.354-5.517 50.96z"/><path d="m368.187 143.8c-18.712-18.711-41.943-32.541-67.184-39.994-14.554-4.3-29.694-6.48-45.003-6.48s-30.449 2.181-45.002 6.479c-25.241 7.454-48.473 21.284-67.185 39.995-18.711 18.711-32.541 41.943-39.993 67.183-4.3 14.554-6.48 29.694-6.48 45.003s2.181 30.449 6.479 45.002c7.453 25.24 21.283 48.473 39.994 67.184 18.712 18.711 41.943 32.541 67.184 39.994 14.554 4.3 29.694 6.48 45.003 6.48s30.449-2.181 45.003-6.48l-.001.001c25.241-7.454 48.473-21.284 67.185-39.995 18.711-18.711 32.541-41.943 39.993-67.183 4.3-14.554 6.48-29.694 6.48-45.003s-2.181-30.449-6.479-45.002c-7.453-25.24-21.284-48.473-39.994-67.184zm20.812 151.524c-13.17 44.602-49.059 80.49-93.661 93.661-.001 0-.001 0-.001.001-12.713 3.756-25.948 5.66-39.337 5.66s-26.624-1.904-39.338-5.661c-44.603-13.171-80.491-49.06-93.662-93.662-3.756-12.713-5.66-25.948-5.66-39.337s1.904-26.624 5.661-39.338c13.17-44.602 49.059-80.49 93.662-93.662 12.713-3.756 25.948-5.66 39.337-5.66s26.624 1.904 39.338 5.661c44.603 13.171 80.491 49.06 93.662 93.662 3.756 12.713 5.66 25.948 5.66 39.337s-1.904 26.624-5.661 39.338z"/></g></g></svg>